<svg width="50" height="50" viewBox="0 0 50 50" fill="none" xmlns="http://www.w3.org/2000/svg">
<path fill-rule="evenodd" clip-rule="evenodd" d="M7 9.69011H44C44.5523 9.69011 45 10.1378 45 10.6901V41C45 41.5523 44.5523 42 44 42H35.2268C35.2245 42.0698 35.2148 42.1407 35.1971 42.2118L34.75 44H44C45.6569 44 47 42.6569 47 41V8C47 6.34315 45.6569 5 44 5H7C5.34315 5 4 6.34315 4 8V41C4 42.6569 5.34314 44 7 44H18.8889L17.0099 42.3089C16.9065 42.2158 16.8287 42.1109 16.7745 42H7C6.44772 42 6 41.5523 6 41V10.6901C6 10.1378 6.44772 9.69011 7 9.69011Z" fill="url(#paint0_linear_15_214)"/>
<path d="M22.9121 6H25.9728L23.9505 9.43429H20.8899L22.9121 6Z" fill="#5346E0"/>
<path d="M9.13924 6H12.1999L10.1776 9.43429H7.11701L9.13924 6Z" fill="#5346E0"/>
<path d="M27.5031 6H30.5637L28.5415 9.43429L25.4808 9.43429L27.5031 6Z" fill="#5346E0"/>
<path d="M13.7302 6L16.7908 6L14.7686 9.43429H11.708L13.7302 6Z" fill="#5346E0"/>
<path d="M32.094 6H35.1547L33.1325 9.43429H30.0718L32.094 6Z" fill="#5346E0"/>
<path d="M18.3212 6H21.3818L19.3596 9.43429H16.2989L18.3212 6Z" fill="#5346E0"/>
<path d="M36.685 6H39.7456L37.7234 9.43429H34.6628L36.685 6Z" fill="#5346E0"/>
<path d="M41.276 6H44.3366L42.3144 9.43429H39.2537L41.276 6Z" fill="#5346E0"/>
<path d="M22.9275 13.4309L25.9852 13.4309L23.8172 9.99995L20.7595 9.99995L22.9275 13.4309Z" fill="#5346E0"/>
<path d="M9.16797 13.4309L12.2256 13.4309L10.0577 9.99995L7.00001 9.99995L9.16797 13.4309Z" fill="#5346E0"/>
<path d="M27.514 13.4309L30.5717 13.4309L28.4037 9.99995L25.346 9.99995L27.514 13.4309Z" fill="#5346E0"/>
<path d="M13.7545 13.4309L16.8121 13.4309L14.6442 9.99995L11.5865 9.99995L13.7545 13.4309Z" fill="#5346E0"/>
<path d="M32.1005 13.4309L35.1582 13.4309L32.9902 9.99995L29.9325 9.99995L32.1005 13.4309Z" fill="#5346E0"/>
<path d="M18.341 13.4309L21.3986 13.4309L19.2307 9.99995L16.173 9.99995L18.341 13.4309Z" fill="#5346E0"/>
<path d="M36.687 13.4309L39.7447 13.4309L37.5767 9.99995L34.519 9.99995L36.687 13.4309Z" fill="#5346E0"/>
<path d="M41.2735 13.4309L44.3312 13.4309L42.1632 9.99995L39.1056 9.99995L41.2735 13.4309Z" fill="#5346E0"/>
<path fill-rule="evenodd" clip-rule="evenodd" d="M16.8383 34.8214C16.8383 33.7064 17.7648 33.5898 17.9023 33.0961H34.762C34.9169 33.652 35.826 33.6072 35.826 34.8998C35.826 36.9526 34.003 37.555 33.9202 37.6222C33.7752 37.7399 33.8507 37.6141 33.7799 37.8015C33.0184 37.6315 30.4243 36.083 30.4243 37.6446C30.4243 38.4145 31.4498 38.3026 32.4703 38.7426C32.7259 38.8528 32.9076 38.9894 33.207 39.0562C33.1922 39.6933 32.8421 39.8001 32.7978 40.311C32.526 40.2415 32.1981 39.8442 31.7353 39.5253C31.5209 39.3775 30.7391 38.8994 30.4243 38.8994C30.0129 38.8994 29.7263 39.2094 29.7093 39.5357C29.665 40.3832 31.8157 40.7018 31.8157 41.7226C31.8157 41.9122 31.2591 42.4902 30.8336 42.5852C30.7454 42.269 30.0207 41.4931 29.7471 41.1952C29.2953 40.7033 28.3782 40.6372 28.3782 41.6442C28.3782 42.0834 29.5341 42.6211 29.6059 43.4479C29.0291 43.7403 27.0211 44.7811 26.3322 44.7811C25.729 44.7811 23.5848 43.7148 23.0584 43.4479C23.2362 42.7165 24.3679 41.9377 24.3679 41.5657C24.3679 41.0243 23.6848 40.2627 22.6018 41.5988C22.3495 41.9099 21.9367 42.2836 21.8308 42.6636C21.1648 42.2363 21.1826 42.0938 20.8486 41.8794C21.0964 41.3846 20.7169 41.3655 21.8791 40.5926C22.5269 40.1617 23.1402 40.0556 23.1402 39.5267C23.1402 39.2021 22.8288 38.8928 22.4644 38.8574C22.1 38.822 21.7715 39.0627 21.507 39.2165C21.2642 39.3576 20.9012 39.5737 20.6711 39.7488C20.3969 39.9574 20.2361 40.2048 19.9484 40.3894C19.8053 40.1303 19.4864 39.5477 19.4573 39.2131C20.343 38.3184 22.2394 38.5631 22.3754 37.6962C22.4378 37.2983 22.0957 36.9388 21.6671 36.9388C20.8779 36.9388 19.2329 37.7419 18.9663 37.8015C18.6757 37.615 18.4341 37.5433 18.1289 37.349C17.3286 36.8395 16.8383 35.8476 16.8383 34.8214ZM21.5852 34.5861C21.5852 35.6792 22.68 35.9646 23.3299 35.3953C23.9291 34.8704 23.6293 33.7049 22.6402 33.6689C22.1299 33.6503 21.5852 34.0639 21.5852 34.5861ZM30.097 35.6841C30.6968 35.6841 31.1609 35.2393 31.1609 34.6646C31.1609 33.8423 30.0453 33.3289 29.3741 33.972C28.703 34.615 29.2388 35.6841 30.097 35.6841ZM30.588 31.6845H22.1581C21.7752 31.6845 21.4698 31.557 21.2769 31.3526C20.7816 30.8276 20.9305 30.0207 20.9305 29.0966C20.9305 28.3644 21.4759 27.8418 22.24 27.8418H30.5061C31.9735 27.8418 31.8157 29.3644 31.8157 30.2729C31.8157 31.0579 31.3901 31.6845 30.588 31.6845ZM33.0433 28.3124C33.377 28.3868 34.877 29.2496 35.2688 29.4736C36.0726 29.9329 35.9078 29.4369 35.9078 31.6845H32.8796C32.9859 31.2473 33.207 31.0349 33.207 30.4298C33.207 29.8056 33.2855 28.796 33.0433 28.3124ZM19.5392 28.8613C19.5392 30.0208 19.3888 30.8193 19.8665 31.6845H16.8383V29.5671C16.8383 29.3376 17.0715 29.2818 17.4677 29.0723C17.7684 28.9132 17.9553 28.8107 18.2549 28.6502C18.5969 28.467 19.5505 27.867 19.8665 27.8418C19.7382 28.0741 19.5392 28.5123 19.5392 28.8613ZM19.8665 18.7448C20.3051 18.8427 22.7001 20.3217 23.2902 20.5659C24.1544 20.9237 24.5093 19.8403 25.1909 18.7491C25.3348 18.5188 25.6098 18.1601 25.6774 17.8822C26.4017 18.3469 27.6212 20.5495 28.3067 20.6271C28.8861 20.6928 29.318 20.0794 29.9128 19.5094C30.2781 19.1594 30.9563 18.4322 31.3246 18.1958C31.6452 19.5147 31.5758 21.2106 32.4024 21.3151C32.5734 21.3367 35.5946 20.4981 35.826 20.3917C35.6418 21.1489 34.291 22.9556 34.5913 23.5294C34.7371 23.808 36.608 24.6876 37.137 24.9386C37.1892 24.9634 37.2886 25.0083 37.353 25.0454C37.5171 25.1396 37.436 25.0849 37.5447 25.1755C37.2059 25.2511 35.5805 25.8668 35.4066 26.0288C34.848 26.5492 35.6667 27.5006 35.826 28.1555C35.5633 28.0969 34.3478 27.3844 33.9717 27.1875C33.6582 27.0234 33.3962 26.8764 33.0928 26.6965C32.6477 26.4325 32.4662 26.5069 31.8158 26.5085L20.2757 26.5086C20.0618 26.5083 19.8247 26.4979 19.6149 26.5028C19.234 26.5117 19.2614 26.537 19.0399 26.6576C18.7114 26.8366 18.4381 26.9828 18.094 27.1629L16.6914 27.9363C16.4926 28.0537 16.4295 28.1006 16.1836 28.1555C16.3249 27.8996 16.4172 27.634 16.5459 27.3264C16.8043 26.7091 17.2174 26.0626 16.0837 25.8201C15.7347 25.7454 15.3209 25.646 14.9559 25.646V25.4891C15.1019 25.4565 17.3901 24.5486 17.4826 24.0582C17.5971 23.4505 16.3455 22.1554 16.1836 21.4896C16.424 21.6001 19.5405 22.0126 19.8135 21.9114C20.4142 21.6888 20.2274 21.0505 20.1353 20.5263C20.0379 19.9723 19.8665 19.3025 19.8665 18.7448ZM23.3858 19.0585L19.8665 18.7448L23.3858 19.0585ZM23.3858 19.0585C22.8308 18.7771 19.4352 16.7058 18.8026 16.7058C17.4539 16.7058 18.6389 18.8425 18.6389 20.4701L14.7869 19.9379C14.3908 19.9397 14.0557 20.235 14.0557 20.6269C14.0557 20.9839 15.658 23.1286 15.7743 23.607L12.8003 25.0705C11.7159 25.5808 11.89 26.1553 12.4053 26.4431C12.6366 26.5723 12.9538 26.5764 13.2717 26.6324C13.8661 26.7369 14.5724 26.9355 15.1196 26.9791C15.0932 27.2828 14.7313 28.0272 14.5935 28.3572C14.3237 29.0035 13.4644 30.4298 14.7922 30.4298C15.0477 30.4298 15.2659 30.2863 15.447 30.1945C15.447 30.7016 15.4094 31.3516 15.4473 31.841C15.4817 32.2852 15.7977 32.7621 16.1836 32.8608C15.6682 33.5982 15.3651 33.581 15.3651 35.0567C15.3651 36.3639 16.18 37.7985 17.3891 38.45C17.8788 38.714 17.6864 38.7623 17.8535 39.3383C17.9624 39.7138 18.0968 39.991 18.2295 40.3111C18.4995 40.9627 18.8197 41.4812 19.1949 42.0525C19.8897 43.1107 21.1038 43.8786 22.2399 44.4674C26.0802 46.4575 26.4206 46.5549 30.2869 44.4926C30.6071 44.3217 30.8465 44.1615 31.145 43.9816C32.9025 42.9225 33.4577 42.2128 34.2958 40.3348C34.4353 40.0222 34.536 39.6793 34.6503 39.3413C34.9697 38.3966 34.6721 38.7405 35.1327 38.4703C35.7487 38.1088 36.158 37.735 36.5299 37.1428C38.1263 34.6005 36.5626 33.1546 36.4807 32.8608C37.4838 32.6042 37.2992 31.2472 37.2992 30.4298C37.6174 30.423 37.5376 30.4635 37.7393 30.3025C38.5164 29.682 36.9128 27.8053 36.8899 26.8223C37.1929 26.7982 38.9389 26.0829 39.4422 25.8957C40.0035 25.6869 40 25.5366 40 25.0186C40 24.704 39.4302 24.5093 39.1816 24.3911C38.522 24.0775 36.5999 23.0611 36.2352 22.9796C36.3191 22.0132 38.1779 19.7319 37.8692 19.0696C37.5016 18.281 36.3352 18.8129 35.1405 19.1859L33.0433 19.7643C33.0433 19.418 32.9429 19.0315 32.8911 18.7337C32.6669 17.4431 32.6981 16 31.8157 16C31.3936 16 31.1349 16.3774 30.8949 16.6078C30.39 17.0924 28.7943 18.6872 28.4601 18.9016C28.218 18.7463 26.8596 17.0529 26.5777 16.7058C26.4802 16.5858 26.3522 16.42 26.2534 16.3106C25.262 15.2121 24.4013 17.6053 23.3858 19.0585Z" fill="url(#paint1_linear_15_214)"/>
<circle cx="7" cy="10" r="3" fill="#5A4AF7"/>
<defs>
<linearGradient id="paint0_linear_15_214" x1="6.96552" y1="9" x2="48.6201" y2="37.2348" gradientUnits="userSpaceOnUse">
<stop stop-color="#4ABEFF"/>
<stop offset="1" stop-color="#044AFF"/>
</linearGradient>
<linearGradient id="paint1_linear_15_214" x1="26" y1="16" x2="26" y2="46" gradientUnits="userSpaceOnUse">
<stop stop-color="#594AFF"/>
<stop offset="1" stop-color="#FF7A00"/>
</linearGradient>
</defs>
</svg>
