<svg width="50" height="50" viewBox="0 0 50 50" fill="none" xmlns="http://www.w3.org/2000/svg">
<path fill-rule="evenodd" clip-rule="evenodd" d="M26.3201 5.64H43.1552C43.6081 5.64 43.9752 6.00712 43.9752 6.46V42.54C43.9752 42.9929 43.6081 43.36 43.1552 43.36H28.7801V45H43.1552C44.5138 45 45.6152 43.8986 45.6152 42.54V6.46C45.6152 5.10138 44.5138 4 43.1552 4H26.3201C24.9615 4 23.8601 5.10138 23.8601 6.46V14.66H25.5001V6.46C25.5001 6.00713 25.8672 5.64 26.3201 5.64Z" fill="url(#paint0_linear_6_47)"/>
<rect x="27.1399" y="8.1001" width="15.898" height="3.34694" rx="1.67347" fill="url(#paint1_linear_6_47)"/>
<path fill-rule="evenodd" clip-rule="evenodd" d="M40.3103 40.0799H39.4735C39.4659 40.0799 39.4627 40.0812 39.461 40.0819C39.4582 40.0831 39.4541 40.0855 39.4499 40.0897C39.4456 40.094 39.4432 40.0981 39.442 40.1009C39.4413 40.1026 39.44 40.1058 39.44 40.1134C39.44 40.1211 39.4413 40.1242 39.442 40.1259C39.4432 40.1288 39.4456 40.1329 39.4499 40.1371C39.4541 40.1413 39.4582 40.1437 39.461 40.1449C39.4627 40.1457 39.4659 40.1469 39.4735 40.1469H40.3103C40.3179 40.1469 40.3211 40.1457 40.3228 40.1449C40.3256 40.1437 40.3297 40.1413 40.3339 40.1371C40.3381 40.1329 40.3406 40.1288 40.3418 40.1259C40.3425 40.1242 40.3437 40.1211 40.3437 40.1134C40.3437 40.1058 40.3425 40.1026 40.3418 40.1009C40.3406 40.0981 40.3381 40.094 40.3339 40.0897C40.3297 40.0855 40.3256 40.0831 40.3228 40.0819C40.3211 40.0812 40.3179 40.0799 40.3103 40.0799ZM39.4735 38.4399C38.5493 38.4399 37.8 39.1892 37.8 40.1134C37.8 41.0376 38.5493 41.7869 39.4735 41.7869H40.3103C41.2345 41.7869 41.9837 41.0376 41.9837 40.1134C41.9837 39.1892 41.2345 38.4399 40.3103 38.4399H39.4735Z" fill="url(#paint2_linear_6_47)"/>
<path fill-rule="evenodd" clip-rule="evenodd" d="M40.3437 31.9136V16.8523C40.3437 16.6028 40.1414 16.4005 39.8919 16.4005C39.6423 16.4005 39.44 16.6028 39.44 16.8523V31.9136C39.44 32.1631 39.6423 32.3654 39.8919 32.3654C40.1414 32.3654 40.3437 32.1631 40.3437 31.9136ZM39.8919 14.7605C38.7366 14.7605 37.8 15.697 37.8 16.8523V31.9136C37.8 33.0688 38.7366 34.0054 39.8919 34.0054C41.0472 34.0054 41.9837 33.0688 41.9837 31.9136V16.8523C41.9837 15.697 41.0472 14.7605 39.8919 14.7605Z" fill="url(#paint3_linear_6_47)"/>
<path fill-rule="evenodd" clip-rule="evenodd" d="M7.46 15.6808H33.4992C33.9521 15.6808 34.3192 16.0479 34.3192 16.5008V35.8461C34.3192 36.299 33.9521 36.6661 33.4992 36.6661H20.9836C20.8187 36.644 20.6505 36.6326 20.4796 36.6326C20.3087 36.6326 20.1404 36.644 19.9756 36.6661H7.46C7.00713 36.6661 6.64 36.299 6.64 35.8461V16.5008C6.64 16.0479 7.00712 15.6808 7.46 15.6808ZM17.3483 38.3061H7.46C6.10138 38.3061 5 37.2047 5 35.8461V16.5008C5 15.1421 6.10138 14.0408 7.46 14.0408H33.4992C34.8578 14.0408 35.9592 15.1422 35.9592 16.5008V35.8461C35.9592 37.2047 34.8578 38.3061 33.4992 38.3061H23.6108C24.0113 38.9044 24.2449 39.6239 24.2449 40.3979V40.8163H25.0816C26.8101 40.8163 28.2938 41.8645 28.9316 43.36C29.1464 43.8636 29.2653 44.4179 29.2653 45H11.6939C11.6939 44.4179 11.8127 43.8636 12.0275 43.36C12.6654 41.8645 14.149 40.8163 15.8775 40.8163H16.7143V40.3979C16.7143 39.6239 16.9478 38.9044 17.3483 38.3061ZM16.7143 42.4898V42.4563H15.8775C15.0976 42.4563 14.3997 42.8073 13.9331 43.36H27.0261C26.5595 42.8073 25.8615 42.4563 25.0816 42.4563H24.2449V42.4898H16.7143ZM22.6049 40.3979V40.8163H18.3543V40.3979C18.3543 39.353 19.1083 38.4842 20.102 38.3061H20.8572C21.8508 38.4842 22.6049 39.353 22.6049 40.3979ZM32.1407 23.4184C32.4491 23.11 32.9492 23.11 33.2576 23.4184C33.566 23.7268 33.566 24.2268 33.2576 24.5352L21.5047 36.2881C21.1963 36.5965 20.6963 36.5965 20.3879 36.2881C20.0795 35.9797 20.0795 35.4797 20.3879 35.1713L32.1407 23.4184ZM25.1181 27.8896C24.8638 27.6353 24.4514 27.6353 24.1971 27.8896L20.2205 31.8662C19.9662 32.1205 19.9662 32.5329 20.2205 32.7872C20.4748 33.0416 20.8872 33.0416 21.1415 32.7872L25.1181 28.8106C25.3725 28.5563 25.3725 28.1439 25.1181 27.8896ZM31.2262 28.2405C31.4805 27.9862 31.8929 27.9862 32.1472 28.2405C32.4016 28.4948 32.4016 28.9072 32.1472 29.1615L30.9815 30.3272C30.7272 30.5816 30.3148 30.5816 30.0605 30.3272C29.8062 30.0729 29.8062 29.6605 30.0605 29.4062L31.2262 28.2405ZM28.2621 31.0773C28.5897 30.7497 29.1208 30.7497 29.4484 31.0773C29.776 31.4049 29.776 31.936 29.4484 32.2636L25.6394 36.0726C25.3118 36.4001 24.7807 36.4001 24.4531 36.0726C24.1256 35.745 24.1255 35.2138 24.4531 34.8863L28.2621 31.0773Z" fill="url(#paint4_linear_6_47)"/>
<defs>
<linearGradient id="paint0_linear_6_47" x1="23.8601" y1="5.64" x2="56.4361" y2="22.9073" gradientUnits="userSpaceOnUse">
<stop stop-color="#594AFF"/>
<stop offset="1" stop-color="#5346E0"/>
</linearGradient>
<linearGradient id="paint1_linear_6_47" x1="27.1399" y1="8.23398" x2="28.4366" y2="14.3872" gradientUnits="userSpaceOnUse">
<stop stop-color="#594AFF"/>
<stop offset="1" stop-color="#5346E0"/>
</linearGradient>
<linearGradient id="paint2_linear_6_47" x1="37.8" y1="38.5738" x2="40.9356" y2="42.4892" gradientUnits="userSpaceOnUse">
<stop stop-color="#594AFF"/>
<stop offset="1" stop-color="#5346E0"/>
</linearGradient>
<linearGradient id="paint3_linear_6_47" x1="37.8" y1="15.5303" x2="45.4634" y2="17.1945" gradientUnits="userSpaceOnUse">
<stop stop-color="#594AFF"/>
<stop offset="1" stop-color="#5346E0"/>
</linearGradient>
<linearGradient id="paint4_linear_6_47" x1="38.62" y1="13.84" x2="-0.496769" y2="34.685" gradientUnits="userSpaceOnUse">
<stop stop-color="#594AFF"/>
<stop offset="1" stop-color="#FF4A96"/>
</linearGradient>
</defs>
</svg>
