<svg width="50" height="50" viewBox="0 0 50 50" fill="none" xmlns="http://www.w3.org/2000/svg">
<path fill-rule="evenodd" clip-rule="evenodd" d="M42.5833 11.75H7.75V33.75H37.0833V36.5H28.8333V39.25H37.0833V42H13.25V39.25H21.5V36.5H5V9H45.3333V27.3333H42.5833V11.75ZM41.6667 31H42.5833V40.1667H41.6667V31ZM39.8333 42V29.1667H44.4167V42H39.8333ZM17.6689 13.0676C17.2534 13.3362 17.1344 13.8908 17.403 14.3062L17.4257 14.3413C17.6943 14.7568 18.2488 14.8758 18.6642 14.6073C19.0797 14.3387 19.1988 13.7842 18.9302 13.3687L18.9075 13.3336C18.6389 12.9181 18.0844 12.7991 17.6689 13.0676ZM9.16432 23.8089C8.88947 23.3837 9.01131 22.8163 9.43646 22.5414L22.5232 14.0811C22.9483 13.8062 23.5158 13.928 23.7907 14.3532C24.0655 14.7783 23.9437 15.3458 23.5185 15.6207L10.4318 24.081C10.0066 24.3559 9.43918 24.2341 9.16432 23.8089ZM9.16432 19.8238C8.88947 19.3986 9.01131 18.8311 9.43646 18.5563L14.941 14.9977C15.3661 14.7229 15.9336 14.8447 16.2084 15.2699C16.4833 15.695 16.3615 16.2625 15.9363 16.5373L10.4318 20.0959C10.0066 20.3708 9.43918 20.2489 9.16432 19.8238ZM10.081 15.5294C9.80613 15.1043 9.92798 14.5368 10.3531 14.262L12.0509 13.1644C12.476 12.8895 13.0435 13.0114 13.3184 13.4365C13.5932 13.8617 13.4714 14.4291 13.0462 14.704L11.3485 15.8016C10.9233 16.0764 10.3558 15.9546 10.081 15.5294ZM21.5 28.3859C22.6908 28.9064 24.0482 29.1667 25.572 29.1667C26.8638 29.1667 27.878 28.8878 28.6147 28.3302C29.3615 27.7725 29.7399 27.0104 29.75 26.0437C29.75 25.3838 29.6037 24.8494 29.311 24.4404C29.0183 24.0222 28.65 23.7015 28.206 23.4785C27.7619 23.2554 27.222 23.0648 26.5862 22.9068L25.5417 22.642C24.8858 22.4839 24.4216 22.3074 24.1491 22.1122C23.8867 21.917 23.7505 21.6149 23.7404 21.206C23.7404 20.2858 24.3358 19.8257 25.5266 19.8257C26.8688 19.8257 28.0899 20.0906 29.1899 20.6204V18.9195C28.6046 18.6686 28.0294 18.4827 27.4642 18.3619C26.9092 18.2317 26.2633 18.1667 25.5266 18.1667C24.2954 18.1667 23.3417 18.4409 22.6656 18.9892C21.9895 19.5283 21.6514 20.3183 21.6514 21.3593C21.6514 22.0006 21.7977 22.5258 22.0904 22.9347C22.383 23.3344 22.7463 23.6411 23.1803 23.8549C23.6142 24.0594 24.1239 24.236 24.7092 24.3847L25.7385 24.6496C26.4046 24.8169 26.889 25.0027 27.1917 25.2072C27.5046 25.4117 27.661 25.7184 27.661 26.1274C27.6509 26.5456 27.4794 26.8802 27.1463 27.1312C26.8133 27.3821 26.2885 27.5076 25.572 27.5076C24.0784 27.5076 22.7211 27.2148 21.5 26.6293V28.3859Z" fill="url(#paint0_linear_6_88)"/>
<defs>
<linearGradient id="paint0_linear_6_88" x1="5" y1="9.91667" x2="43.9583" y2="43.375" gradientUnits="userSpaceOnUse">
<stop stop-color="#34DAFF"/>
<stop offset="0.482948" stop-color="#A32AAD"/>
<stop offset="1" stop-color="#EBD936"/>
</linearGradient>
</defs>
</svg>
